<svg width="294" height="63" viewBox="0 0 294 63" fill="none" xmlns="http://www.w3.org/2000/svg">
<rect x="0.0791016" y="0.21875" width="293.763" height="61.875" rx="30.9375" fill="#D4BEA3"/>
<path d="M89.1161 38.0938H94.7701C97.6521 38.0938 100.16 36.6857 100.16 33.5617C100.16 31.9777 99.3461 30.3937 97.6301 29.8877V29.8437C98.8181 29.2057 99.5221 27.9517 99.5221 26.4997C99.5221 23.9257 97.5201 22.4737 94.6821 22.4737H89.1161V38.0938ZM91.9541 28.8537V24.9157H94.6601C95.9581 24.9157 96.6401 25.7297 96.6401 26.8517C96.6401 27.9737 95.9361 28.8537 94.7041 28.8537H91.9541ZM91.9541 35.6517V31.1417H94.9901C96.4201 31.1417 97.2561 32.0877 97.2561 33.3857C97.2561 34.7057 96.4421 35.6517 94.9901 35.6517H91.9541ZM101.96 32.4837C101.96 35.9377 104.71 38.3578 108.12 38.3578C111.53 38.3578 114.28 35.9377 114.28 32.4837C114.28 29.0517 111.53 26.6097 108.098 26.6097C104.71 26.6097 101.96 29.0517 101.96 32.4837ZM104.798 32.4837C104.798 30.4157 106.294 28.9857 108.12 28.9857C109.946 28.9857 111.464 30.4157 111.464 32.4837C111.464 34.5737 109.946 35.9817 108.12 35.9817C106.294 35.9817 104.798 34.5737 104.798 32.4837ZM115.903 32.4837C115.903 35.9377 118.653 38.3578 122.063 38.3578C125.473 38.3578 128.223 35.9377 128.223 32.4837C128.223 29.0517 125.473 26.6097 122.041 26.6097C118.653 26.6097 115.903 29.0517 115.903 32.4837ZM118.741 32.4837C118.741 30.4157 120.237 28.9857 122.063 28.9857C123.889 28.9857 125.407 30.4157 125.407 32.4837C125.407 34.5737 123.889 35.9817 122.063 35.9817C120.237 35.9817 118.741 34.5737 118.741 32.4837ZM130.529 38.0938H133.323V33.1877H134.775L137.745 38.0938H140.957L136.975 31.9337V31.8897L140.517 26.8737H137.415L134.709 30.8337H133.323V22.4737H130.529V38.0938ZM148.245 33.9797C148.245 37.7417 151.347 38.2038 152.909 38.2038C153.283 38.2038 153.547 38.1598 153.767 38.1378V35.6957C153.547 35.7397 153.415 35.7397 153.261 35.7397C152.491 35.7397 151.039 35.4757 151.039 33.6277V29.2497H153.591V27.0277H151.039V23.8157H148.311V27.0277H146.793V29.2497H148.245V33.9797ZM155.902 38.0938H158.696V33.5617C158.696 31.4497 159.708 29.4697 161.996 29.4697C162.238 29.4697 162.568 29.4917 162.678 29.5137V26.7637C162.502 26.7417 162.326 26.7197 162.15 26.7197C160.456 26.7197 159.092 28.0397 158.586 29.6237H158.542C158.542 29.6237 158.586 29.2717 158.586 28.8537V26.8737H155.902V38.0938ZM163.638 34.9917C163.638 37.0377 165.31 38.3578 167.334 38.3578C168.852 38.3578 170.194 37.5217 170.876 36.3337H170.92C170.92 36.3337 170.854 36.6857 170.854 37.1477V38.0938H173.45V31.0757C173.45 28.2377 171.712 26.6097 168.786 26.6097C167.114 26.6097 165.31 27.2477 164.386 27.9957L165.42 29.9977C166.322 29.3817 167.444 28.9197 168.544 28.9197C169.71 28.9197 170.656 29.4257 170.656 30.8997V31.0537H170.172C167.686 31.0537 163.638 31.6258 163.638 34.9917ZM166.41 34.7497C166.41 33.1657 168.786 32.9677 170.194 32.9677H170.678V33.2757C170.678 34.6397 169.666 36.2237 168.104 36.2237C166.982 36.2237 166.41 35.4977 166.41 34.7497ZM179 38.0938H182.3L186.326 26.8737H183.378L181.046 33.8257C180.848 34.4857 180.65 35.5197 180.65 35.5197H180.606C180.606 35.5197 180.408 34.4857 180.21 33.8257L177.878 26.8737H174.93L179 38.0938ZM187.167 32.4837C187.167 35.6737 189.499 38.3578 193.217 38.3578C194.823 38.3578 196.583 37.7637 197.727 36.7517L196.627 34.7497C195.725 35.4757 194.559 35.9817 193.415 35.9817C191.721 35.9817 190.225 34.9697 190.049 33.0117H197.771C197.815 32.6597 197.859 32.2858 197.859 31.9337C197.859 28.9637 196.099 26.6097 192.887 26.6097C189.521 26.6097 187.167 29.0297 187.167 32.4837ZM190.115 31.0977C190.379 29.6677 191.391 28.7217 192.821 28.7217C194.075 28.7217 195.043 29.6017 195.065 31.0977H190.115ZM200.181 34.5957C200.181 37.8077 202.095 38.2038 203.635 38.2038C204.009 38.2038 204.317 38.1598 204.515 38.1378V35.6957C204.361 35.7177 204.207 35.7177 204.097 35.7177C203.371 35.7177 202.953 35.4097 202.953 34.1777V22.4737H200.181V34.5957Z" fill="white"/>
</svg>
